<svg width="19" height="19" viewBox="0 0 19 19" fill="none" xmlns="http://www.w3.org/2000/svg">
<path d="M12.2959 12.1537L7.87753 17.565C7.85928 17.589 7.84004 17.6122 7.81989 17.6346C7.61235 17.8732 7.36532 17.9787 7.12274 17.987C6.88055 18.0032 6.62417 17.923 6.39369 17.7065C6.3714 17.6862 6.34993 17.665 6.32936 17.643L3.53602 14.8497C2.59321 13.9069 4.00742 12.4927 4.95023 13.4355C5.89304 14.3783 4.47883 15.7925 3.53602 14.8497L0.707589 12.0213C-0.23522 11.0784 1.179 9.66421 2.12181 10.607L4.95023 13.4355L6.99653 15.4818L10.7467 10.8888C11.59 9.85599 13.1391 11.1209 12.2959 12.1537L10.7467 10.8888L12.2959 12.1537ZM3.53602 14.8497L4.95023 13.4355L3.53602 14.8497ZM10.7467 10.8888L15.1964 5.43903C16.0397 4.40624 17.5889 5.67116 16.7456 6.70395L12.2959 12.1537C11.4526 13.1865 9.90343 11.9216 10.7467 10.8888Z" fill="#0A50D1"/>
</svg>
