<svg width="19" height="11" viewBox="0 0 19 11" fill="none" xmlns="http://www.w3.org/2000/svg">
<path fill-rule="evenodd" clip-rule="evenodd" d="M1.315 0.387024H17.315C17.5802 0.387024 17.8346 0.492381 18.0221 0.679917C18.2096 0.867454 18.315 1.12181 18.315 1.38702C18.315 1.65224 18.2096 1.90659 18.0221 2.09413C17.8346 2.28167 17.5802 2.38702 17.315 2.38702H1.315C1.04979 2.38702 0.795432 2.28167 0.607896 2.09413C0.420359 1.90659 0.315002 1.65224 0.315002 1.38702C0.315002 1.12181 0.420359 0.867454 0.607896 0.679917C0.795432 0.492381 1.04979 0.387024 1.315 0.387024ZM1.315 4.38702H7.315C7.58022 4.38702 7.83457 4.49238 8.02211 4.67992C8.20965 4.86745 8.315 5.12181 8.315 5.38702C8.315 5.65224 8.20965 5.90659 8.02211 6.09413C7.83457 6.28167 7.58022 6.38702 7.315 6.38702H1.315C1.04979 6.38702 0.795432 6.28167 0.607896 6.09413C0.420359 5.90659 0.315002 5.65224 0.315002 5.38702C0.315002 5.12181 0.420359 4.86745 0.607896 4.67992C0.795432 4.49238 1.04979 4.38702 1.315 4.38702ZM1.315 8.38702H12.315C12.5802 8.38702 12.8346 8.49238 13.0221 8.67992C13.2096 8.86745 13.315 9.12181 13.315 9.38702C13.315 9.65224 13.2096 9.90659 13.0221 10.0941C12.8346 10.2817 12.5802 10.387 12.315 10.387H1.315C1.04979 10.387 0.795432 10.2817 0.607896 10.0941C0.420359 9.90659 0.315002 9.65224 0.315002 9.38702C0.315002 9.12181 0.420359 8.86745 0.607896 8.67992C0.795432 8.49238 1.04979 8.38702 1.315 8.38702Z" fill="#0848C0"/>
</svg>
